<?xml version="1.0" standalone="no"?>
<!DOCTYPE svg PUBLIC "-//W3C//DTD SVG 20010904//EN"
 "http://www.w3.org/TR/2001/REC-SVG-20010904/DTD/svg10.dtd">
<svg version="1.0" xmlns="http://www.w3.org/2000/svg"
 width="553.000000pt" height="185.000000pt" viewBox="0 0 553.000000 185.000000"
 preserveAspectRatio="xMidYMid meet">

<g transform="translate(0.000000,185.000000) scale(0.100000,-0.100000)"
fill="#000000" stroke="none">
<path d="M3609 1296 c-114 -32 -198 -102 -247 -206 -22 -46 -26 -69 -26 -145
0 -76 4 -99 26 -145 52 -111 147 -185 270 -210 144 -29 303 51 378 192 33 60
34 68 34 163 0 89 -3 106 -27 152 -53 103 -135 170 -242 198 -69 18 -103 18
-166 1z m228 -70 c89 -49 141 -119 165 -224 22 -99 -20 -222 -100 -293 -66
-57 -140 -82 -232 -77 -121 7 -214 69 -265 176 -36 76 -39 191 -5 265 57 126
162 190 305 184 65 -3 90 -8 132 -31z"/>
<path d="M3750 1073 c-23 -12 -43 -34 -58 -65 -20 -40 -22 -51 -12 -86 16 -60
68 -102 128 -102 59 0 103 26 125 73 22 46 21 85 -3 124 -39 65 -117 89 -180
56z m157 -59 c8 -21 -9 -48 -32 -53 -26 -5 -47 26 -34 50 12 23 57 25 66 3z"/>
<path d="M4363 1282 c-110 -39 -198 -132 -230 -241 -20 -72 -13 -179 17 -246
33 -72 109 -147 183 -181 53 -25 74 -29 147 -29 70 1 95 5 140 26 176 82 262
275 199 446 -36 98 -95 164 -188 210 -72 36 -191 42 -268 15z m252 -55 c133
-68 200 -199 175 -340 -24 -130 -109 -219 -242 -253 -178 -46 -362 86 -385
275 -17 142 81 292 221 337 64 21 171 12 231 -19z"/>
<path d="M4545 1070 c-52 -26 -75 -65 -75 -127 1 -58 26 -94 84 -118 121 -51
235 96 160 204 -17 23 -86 60 -114 61 -8 0 -33 -9 -55 -20z m145 -55 c18 -22
3 -55 -25 -55 -29 0 -47 27 -34 52 12 22 42 23 59 3z"/>
<path d="M922 1249 c-71 -28 -163 -114 -193 -181 -19 -43 -23 -71 -24 -143 0
-79 3 -97 28 -147 72 -147 223 -226 379 -198 113 21 193 80 249 182 32 60 34
68 34 163 0 86 -3 106 -24 145 -32 62 -106 136 -166 168 -70 36 -206 42 -283
11z m219 -238 c33 -33 39 -45 39 -82 0 -56 -27 -101 -75 -123 -49 -24 -96 -14
-143 29 -34 31 -37 38 -37 90 0 53 3 59 37 91 33 29 45 34 89 34 46 0 55 -4
90 -39z"/>
<path d="M1693 1256 c-88 -28 -176 -107 -216 -194 -33 -72 -31 -208 4 -282 66
-142 226 -228 374 -201 78 15 161 56 192 98 23 31 27 46 31 122 6 145 -27 179
-174 180 -39 1 -85 -4 -101 -9 -31 -11 -53 -45 -53 -81 0 -33 44 -69 87 -70
l38 -1 -34 -15 c-91 -39 -192 53 -167 154 4 14 22 41 41 60 27 27 40 33 76 33
24 0 64 -9 88 -20 63 -29 106 -26 141 9 40 40 48 76 24 120 -48 90 -221 137
-351 97z"/>
<path d="M2342 1249 c-71 -28 -163 -114 -193 -181 -19 -43 -23 -71 -24 -143 0
-79 3 -97 28 -147 72 -147 223 -226 379 -198 113 21 193 80 249 182 32 60 34
68 34 163 0 86 -3 106 -24 145 -32 62 -106 136 -166 168 -70 36 -206 42 -283
11z m219 -238 c33 -33 39 -45 39 -82 0 -56 -27 -101 -75 -123 -49 -24 -96 -14
-143 29 -34 31 -37 38 -37 90 0 53 3 59 37 91 33 29 45 34 89 34 46 0 55 -4
90 -39z"/>
<path d="M271 1244 c-46 -32 -51 -66 -51 -324 0 -265 4 -286 60 -315 42 -22
289 -21 335 0 61 30 74 107 26 156 -28 28 -34 29 -115 29 l-85 0 -3 206 -3
206 -33 29 c-38 34 -93 39 -131 13z"/>
<path d="M2928 1231 l-33 -29 -3 -249 c-4 -280 1 -313 51 -343 28 -17 51 -20
170 -20 158 0 197 11 218 62 17 40 2 95 -33 121 -20 15 -48 21 -108 25 l-80 5
0 179 c0 192 -8 231 -51 262 -38 26 -93 21 -131 -13z"/>
<path d="M4932 1244 c-48 -34 -52 -56 -52 -318 0 -135 4 -256 9 -269 17 -44
51 -67 99 -67 84 0 105 28 112 149 l5 85 87 -111 c48 -61 95 -113 103 -117 9
-3 35 -6 57 -6 58 0 98 42 98 103 0 39 -7 53 -77 141 l-76 98 60 87 c33 47 63
99 67 114 14 59 -43 127 -108 127 -48 0 -75 -23 -143 -124 l-68 -101 -5 80
c-5 85 -19 117 -57 134 -34 16 -85 13 -111 -5z"/>
</g>
</svg>
